<mxfile host="app.diagrams.net" agent="Mozilla/5.0 (X11; Linux x86_64; rv:109.0) Gecko/20100101 Firefox/115.0" version="28.0.7">
  <diagram name="第 1 页" id="vNpipkyIo6hlMvCb-rWN">
    <mxGraphModel dx="970" dy="561" grid="1" gridSize="10" guides="1" tooltips="1" connect="1" arrows="1" fold="1" page="1" pageScale="1" pageWidth="3300" pageHeight="4681" math="0" shadow="0">
      <root>
        <mxCell id="0" />
        <mxCell id="1" parent="0" />
        <mxCell id="bcbLDdxJfO9VDAEmfC5w-3" style="rounded=0;orthogonalLoop=1;jettySize=auto;html=1;entryX=0;entryY=0.5;entryDx=0;entryDy=0;" parent="1" source="bcbLDdxJfO9VDAEmfC5w-1" target="bcbLDdxJfO9VDAEmfC5w-2" edge="1">
          <mxGeometry relative="1" as="geometry" />
        </mxCell>
        <mxCell id="XjHJWzj3tPjJtDDLOWkv-3" style="rounded=0;orthogonalLoop=1;jettySize=auto;html=1;exitX=0;exitY=1;exitDx=0;exitDy=0;entryX=1;entryY=0;entryDx=0;entryDy=0;" edge="1" parent="1" source="bcbLDdxJfO9VDAEmfC5w-1" target="XjHJWzj3tPjJtDDLOWkv-2">
          <mxGeometry relative="1" as="geometry" />
        </mxCell>
        <mxCell id="XjHJWzj3tPjJtDDLOWkv-5" style="rounded=0;orthogonalLoop=1;jettySize=auto;html=1;exitX=1;exitY=1;exitDx=0;exitDy=0;entryX=0;entryY=0.25;entryDx=0;entryDy=0;" edge="1" parent="1" source="bcbLDdxJfO9VDAEmfC5w-1" target="bcbLDdxJfO9VDAEmfC5w-6">
          <mxGeometry relative="1" as="geometry" />
        </mxCell>
        <mxCell id="XjHJWzj3tPjJtDDLOWkv-9" style="edgeStyle=none;rounded=0;orthogonalLoop=1;jettySize=auto;html=1;exitX=0;exitY=0;exitDx=0;exitDy=0;entryX=1;entryY=1;entryDx=0;entryDy=0;" edge="1" parent="1" source="bcbLDdxJfO9VDAEmfC5w-1" target="XjHJWzj3tPjJtDDLOWkv-8">
          <mxGeometry relative="1" as="geometry" />
        </mxCell>
        <mxCell id="XjHJWzj3tPjJtDDLOWkv-11" style="edgeStyle=none;rounded=0;orthogonalLoop=1;jettySize=auto;html=1;exitX=1;exitY=0;exitDx=0;exitDy=0;entryX=0;entryY=1;entryDx=0;entryDy=0;" edge="1" parent="1" source="bcbLDdxJfO9VDAEmfC5w-1" target="XjHJWzj3tPjJtDDLOWkv-10">
          <mxGeometry relative="1" as="geometry" />
        </mxCell>
        <mxCell id="XjHJWzj3tPjJtDDLOWkv-12" style="edgeStyle=none;rounded=0;orthogonalLoop=1;jettySize=auto;html=1;entryX=0.5;entryY=0;entryDx=0;entryDy=0;" edge="1" parent="1" source="bcbLDdxJfO9VDAEmfC5w-1" target="XjHJWzj3tPjJtDDLOWkv-4">
          <mxGeometry relative="1" as="geometry" />
        </mxCell>
        <mxCell id="bcbLDdxJfO9VDAEmfC5w-1" value="仓库" style="ellipse;whiteSpace=wrap;html=1;" parent="1" vertex="1">
          <mxGeometry x="510" y="260" width="120" height="80" as="geometry" />
        </mxCell>
        <mxCell id="XjHJWzj3tPjJtDDLOWkv-6" style="rounded=0;orthogonalLoop=1;jettySize=auto;html=1;exitX=1;exitY=1;exitDx=0;exitDy=0;entryX=0;entryY=0.25;entryDx=0;entryDy=0;" edge="1" parent="1" source="bcbLDdxJfO9VDAEmfC5w-2" target="XjHJWzj3tPjJtDDLOWkv-1">
          <mxGeometry relative="1" as="geometry" />
        </mxCell>
        <mxCell id="bcbLDdxJfO9VDAEmfC5w-2" value="仓位" style="ellipse;whiteSpace=wrap;html=1;" parent="1" vertex="1">
          <mxGeometry x="780" y="210" width="120" height="80" as="geometry" />
        </mxCell>
        <mxCell id="bcbLDdxJfO9VDAEmfC5w-6" value="&lt;div&gt;需要记录什么信息？&lt;/div&gt;库存编码、库存类型（实仓、虚仓）；仓库物料类型（型材、玻璃、配件）；地址、电话、归哪个部门管理" style="rounded=0;whiteSpace=wrap;html=1;labelPosition=center;verticalLabelPosition=middle;align=left;verticalAlign=top;" parent="1" vertex="1">
          <mxGeometry x="660" y="330" width="170" height="90" as="geometry" />
        </mxCell>
        <mxCell id="XjHJWzj3tPjJtDDLOWkv-1" value="类似于超市里某某区，指的是某块区域" style="rounded=0;whiteSpace=wrap;html=1;verticalAlign=top;align=left;" vertex="1" parent="1">
          <mxGeometry x="890" y="290" width="120" height="60" as="geometry" />
        </mxCell>
        <mxCell id="XjHJWzj3tPjJtDDLOWkv-2" value="入库" style="ellipse;whiteSpace=wrap;html=1;" vertex="1" parent="1">
          <mxGeometry x="260" y="370" width="120" height="80" as="geometry" />
        </mxCell>
        <mxCell id="XjHJWzj3tPjJtDDLOWkv-4" value="出库" style="ellipse;whiteSpace=wrap;html=1;" vertex="1" parent="1">
          <mxGeometry x="440" y="500" width="120" height="80" as="geometry" />
        </mxCell>
        <mxCell id="XjHJWzj3tPjJtDDLOWkv-8" value="库存盘点" style="ellipse;whiteSpace=wrap;html=1;" vertex="1" parent="1">
          <mxGeometry x="310" y="150" width="120" height="80" as="geometry" />
        </mxCell>
        <mxCell id="XjHJWzj3tPjJtDDLOWkv-10" value="调拨" style="ellipse;whiteSpace=wrap;html=1;" vertex="1" parent="1">
          <mxGeometry x="630" y="100" width="120" height="80" as="geometry" />
        </mxCell>
        <mxCell id="XjHJWzj3tPjJtDDLOWkv-13" value="库存结帐" style="ellipse;whiteSpace=wrap;html=1;" vertex="1" parent="1">
          <mxGeometry x="660" y="480" width="120" height="80" as="geometry" />
        </mxCell>
        <mxCell id="XjHJWzj3tPjJtDDLOWkv-14" style="edgeStyle=none;rounded=0;orthogonalLoop=1;jettySize=auto;html=1;entryX=0.143;entryY=0.218;entryDx=0;entryDy=0;entryPerimeter=0;" edge="1" parent="1" source="bcbLDdxJfO9VDAEmfC5w-1" target="XjHJWzj3tPjJtDDLOWkv-13">
          <mxGeometry relative="1" as="geometry" />
        </mxCell>
      </root>
    </mxGraphModel>
  </diagram>
</mxfile>
